<?xml version="1.0" encoding="UTF-8" standalone="no"?>
<!-- Created with Inkscape (http://www.inkscape.org/) -->

<svg
   xmlns:dc="http://purl.org/dc/elements/1.1/"
   xmlns:cc="http://creativecommons.org/ns#"
   xmlns:rdf="http://www.w3.org/1999/02/22-rdf-syntax-ns#"
   xmlns:svg="http://www.w3.org/2000/svg"
   xmlns="http://www.w3.org/2000/svg"
   xmlns:sodipodi="http://sodipodi.sourceforge.net/DTD/sodipodi-0.dtd"
   xmlns:inkscape="http://www.inkscape.org/namespaces/inkscape"
   width="64px"
   height="64px"
   id="svg3391"
   version="1.1"
   inkscape:version="0.48.4 r9939"
   sodipodi:docname="Neues Dokument 8">
  <defs
     id="defs3393" />
  <sodipodi:namedview
     id="base"
     pagecolor="#ffffff"
     bordercolor="#666666"
     borderopacity="1.0"
     inkscape:pageopacity="0.0"
     inkscape:pageshadow="2"
     inkscape:zoom="5.5"
     inkscape:cx="8.9090909"
     inkscape:cy="32"
     inkscape:current-layer="layer1"
     showgrid="true"
     inkscape:document-units="px"
     inkscape:grid-bbox="true"
     inkscape:window-width="1680"
     inkscape:window-height="991"
     inkscape:window-x="0"
     inkscape:window-y="27"
     inkscape:window-maximized="1" />
  <metadata
     id="metadata3396">
    <rdf:RDF>
      <cc:Work
         rdf:about="">
        <dc:format>image/svg+xml</dc:format>
        <dc:type
           rdf:resource="http://purl.org/dc/dcmitype/StillImage" />
        <dc:title></dc:title>
      </cc:Work>
    </rdf:RDF>
  </metadata>
  <g
     id="layer1"
     inkscape:label="Layer 1"
     inkscape:groupmode="layer">
    <path
       id="path3399"
       d="m 54.95,36.725 c -1.99125,-0.97875 -4.86,-3.3075 -9.14625,-4.08375 1.04625,-1.24875 1.89,-3.1725 2.80125,-5.43375 0.43875,-1.38375 0.3375,-2.4975 0.3375,-4.08375 0,-1.215 0.27,-3.07125 -0.0675,-4.15125 C 47.93,15.42875 45.5675,14.45 42.76625,14.45 c -1.38375,0 -2.6325,0.23625 -3.67875,0.84375 0.405,0.7425 0.7425,1.58625 1.0125,2.59875 0.43875,1.485 0.10125,4.05 0.10125,5.67 0,2.19375 0.10125,3.7125 -0.4725,5.56875 L 38.8175,31.3925 c 0.27,0.4725 0.57375,0.91125 0.91125,1.24875 -0.57375,0.10125 -1.11375,0.23625 -1.65375,0.405 -0.64125,1.38375 -1.31625,2.59875 -2.0925,3.51 5.7375,1.04625 9.585,4.2525 12.2175,5.56875 1.4175,0.675 2.46375,1.38375 3.24,2.025 h 4.55625 C 57.8525,44.15 59,42.665 59,41.315 V 40.64 c 0,0 -0.03375,-2.05875 -4.05,-3.915 z m -12.15,5.4 c -2.6325,-1.31625 -6.48,-4.5225 -12.2175,-5.56875 1.4175,-1.6875 2.565,-4.35375 3.74625,-7.425 0.57375,-1.85625 0.4725,-3.375 0.4725,-5.56875 0,-1.62 0.3375,-4.185 -0.10125,-5.67 -1.24875,-4.82625 -4.42125,-6.1425 -8.1675,-6.1425 -3.78,0 -6.9525,1.31625 -8.20125,6.1425 -0.37125,1.485 -0.10125,4.08375 -0.10125,5.67 0,2.19375 -0.10125,3.7125 0.6075,5.56875 1.11375,3.07125 2.19375,5.77125 3.645,7.425 C 16.8125,37.67 12.93125,40.8425 10.4,42.125 5,44.65625 5,47.49125 5,47.49125 V 48.5375 C 5,50.39375 6.99125,52.25 8.94875,52.25 H 44.2175 c 2.46375,0 3.9825,-2.025 3.9825,-3.88125 v -0.8775 c 0,0 -0.0675,-2.835 -5.4,-5.36625 z"
       clip-rule="evenodd"
       inkscape:connector-curvature="0"
       style="fill-rule:evenodd" />
  </g>
</svg>
